<svg width="442" height="206" viewBox="0 0 442 206" fill="none" xmlns="http://www.w3.org/2000/svg">
<path d="M14.5817 48.7246C13.8689 52.3777 12.8101 55.4236 13.1214 59.1589C13.4248 62.8 13.1479 66.5871 13.1479 70.2303C13.1479 82.256 11.8767 94.3129 11.7142 106.339C11.6625 110.166 11.2363 113.93 11.2363 117.782C11.2363 120.647 12.0265 121.486 13.9976 123.384C20.3821 129.532 29.808 129.515 38.1052 130.553C51.4505 132.221 65.1367 132.164 78.4085 134.376C82.7138 135.093 81.1347 144.262 80.7715 147.385C80.0747 153.377 80.3466 159.36 79.6829 165.333C79.3484 168.344 79.78 171.38 79.3377 174.387C79.0667 176.23 78.6209 178.32 78.6209 180.175C78.6209 183.034 78.6209 185.892 78.6209 188.751C78.6209 194.172 79.5767 199.614 79.5767 204.999" stroke="black" stroke-width="0.5" stroke-linecap="round"/>
<path d="M14.58 47.2912C9.88354 45.1859 -1.22825 40.9971 0.827005 33.8037C2.77493 26.9859 1.20785 19.223 8.36728 15.6433C13.8895 12.8822 20.4397 13.566 26.4215 13.8379C29.5296 13.9791 30.6116 16.2166 31.6784 18.6169C32.3031 20.0226 33.0944 23.8739 31.0678 23.8739C28.857 23.8739 19.837 23.2137 19.837 26.5023C19.837 28.1517 19.2084 29.5986 20.6069 31.3079C22.9708 34.1971 26.5331 35.5322 30.165 35.848C36.0464 36.3595 43.2543 37.388 43.2543 29.8477C43.2543 27.1816 32.0057 22.9538 31.3067 24.3518" stroke="black" stroke-width="0.5" stroke-linecap="round"/>
<path d="M32.2625 34.8662C31.5496 38.5198 30.1853 44.4346 25.8108 45.4067C22.2394 46.2003 18.0189 45.6676 14.5801 46.8138" stroke="black" stroke-width="0.5" stroke-linecap="round"/>
<path d="M409.329 12.8808C405.534 12.3748 401.785 12.4029 397.965 12.4029C396.095 12.4029 394.404 12.3403 392.867 13.5976C391.654 14.5907 387.912 17.2933 389.628 19.1997C392.438 22.3217 396.027 22.4083 400.062 23.1557C405.38 24.1404 410.543 24.009 415.78 22.6513C417.532 22.1971 419.239 21.7786 421.011 21.4565C422.331 21.2164 422.609 19.5594 423.294 18.7218C425.093 16.5224 420.966 15.1849 419.577 14.5534C416.042 12.9465 410.734 15.0925 407.417 12.8808" stroke="black" stroke-width="0.5" stroke-linecap="round"/>
<path d="M405.029 11.4487C407.737 6.03307 410.363 2.64523 416.526 1.41273C422.071 0.303686 427.681 1.70534 433.199 2.39509C443.867 3.72859 441.76 20.1507 439.916 27.2196C438.588 32.3097 437.037 34.5008 432.509 37.0166C429.495 38.6911 424.706 38.014 421.756 36.5387C418.936 35.1289 412.965 33.4756 411.348 30.5649C410.135 28.3816 410.286 26.3867 410.286 23.8742" stroke="black" stroke-width="0.5" stroke-linecap="round"/>
<path d="M425.101 37.7334C426.411 51.8475 426.944 65.9078 426.508 80.0545C426.235 88.9483 426.057 97.807 426.057 106.711C426.057 109.763 425.819 113.696 422.632 114.915C415.913 117.484 408.93 119.551 401.737 120.199C393.212 120.966 384.399 118.718 376.089 117.066C363.852 114.632 351.902 112.607 339.424 113.216C337.165 113.326 336.318 113.473 335.733 115.844C333.798 123.691 333.852 132.362 333.821 140.377C333.782 150.521 334.116 160.59 335.016 170.697C335.516 176.31 336.726 181.91 337.14 187.503C337.311 189.81 337.167 192.171 337.167 194.486" stroke="black" stroke-width="0.5" stroke-linecap="round"/>
</svg>
