<svg width="300" height="214" viewBox="0 0 300 214" fill="none" xmlns="http://www.w3.org/2000/svg">
<g opacity="0.91">
<path d="M56.4209 46.7328C60.4064 56.6843 82.1592 52.6613 84.6544 45.2169C87.1497 37.7725 85.8597 31.2028 82.9135 26.6798C79.9673 22.1568 70.4101 21.9049 64.9851 24.6174C57.9518 28.1341 52.4354 36.7812 56.4209 46.7328Z" stroke="#0A1D3E" stroke-width="0.5" stroke-linecap="round"/>
<path d="M68.7931 61.4473C68.5077 68.0259 63.6935 73.9818 62.2431 80.321C60.7079 87.0304 59.965 93.7668 59.3307 100.572C57.7023 118.041 58.2922 135.505 56.0542 152.934C54.6053 164.217 54.6404 176.055 54.2339 187.36C54.0748 191.787 54.2339 196.24 54.2339 200.667" stroke="#0A1D3E" stroke-width="0.5" stroke-linecap="round"/>
<path d="M69.058 52.6582C69.1926 54.5181 68.5325 61.7436 69.058 63.5878C70.1088 67.2752 71.7379 74.9372 72.2754 78.6967C73.2903 85.7949 74.8109 92.699 76.0777 99.7494C78.7547 114.648 81.1744 128.988 81.1744 144.153C81.1744 157.357 82.6306 170.546 82.6306 183.774C82.6306 189.405 82.6306 195.035 82.6306 200.666" stroke="#0A1D3E" stroke-width="0.5" stroke-linecap="round"/>
<path d="M75.7412 94.8085C81.2568 94.8085 86.919 95.5093 92.2729 92.2977C98.3029 88.6806 103.575 77.0193 105.098 64.5133C105.892 57.9877 105.51 50.3498 105.436 43.6819C105.381 38.774 104.85 34.3032 104.476 29.5277C104.305 27.3473 103.921 19.7464 103.014 18.8223" stroke="#0A1D3E" stroke-width="0.5" stroke-linecap="round"/>
<path d="M59.6321 32.956C59.6107 31.0732 61.6501 30.7139 63.1354 30.6118C64.6207 30.5096 76.7832 29.1059 80.4746 29.9133C84.1661 30.7207 82.8621 33.8596 82.344 35.6776C81.8258 37.4956 81.5538 37.9281 77.8838 39.0035C74.2138 40.0789 66.8928 41.2351 63.2425 40.0256C59.5922 38.8161 59.6536 34.8387 59.6321 32.956Z" stroke="#0A1D3E" stroke-width="0.5" stroke-linecap="round"/>
</g>
</svg>
