<svg width="452" height="238" viewBox="0 0 452 238" fill="none" xmlns="http://www.w3.org/2000/svg">
<g opacity="0.91">
<path d="M60.4094 55.35C64.3949 65.3015 86.1477 61.2785 88.643 53.8341C91.1382 46.3896 89.8482 39.82 86.902 35.297C83.9559 30.774 74.3987 30.5221 68.9737 33.2346C61.9403 36.7513 56.4239 45.3984 60.4094 55.35Z" stroke="#0A1D3E" stroke-width="0.5" stroke-linecap="round"/>
<path d="M72.7818 70.0645C72.4963 76.6431 67.6821 82.599 66.2317 88.9382C64.6966 95.6476 63.9536 102.384 63.3193 109.189C61.6909 126.658 62.2808 144.123 60.0428 161.551C58.594 172.834 58.6291 184.672 58.2226 195.977C58.0634 200.404 58.2226 204.857 58.2226 209.285" stroke="#0A1D3E" stroke-width="0.5" stroke-linecap="round"/>
<path d="M73.0467 61.2754C73.1813 63.1353 72.5212 70.3608 73.0467 72.205C74.0975 75.8924 75.7266 83.5544 76.2641 87.3138C77.279 94.4121 78.7996 101.316 80.0664 108.367C82.7433 123.265 85.1631 137.605 85.1631 152.77C85.1631 165.974 86.6193 179.163 86.6193 192.391C86.6193 198.022 86.6193 203.653 86.6193 209.283" stroke="#0A1D3E" stroke-width="0.5" stroke-linecap="round"/>
<path d="M79.7297 103.426C85.2453 103.426 90.9075 104.126 96.2615 100.915C102.291 97.2978 107.564 85.6365 109.086 73.1305C109.881 66.6049 109.499 58.967 109.425 52.2991C109.37 47.3912 108.839 42.9204 108.464 38.1448C108.293 35.9645 107.909 28.3636 107.003 27.4395" stroke="#0A1D3E" stroke-width="0.5" stroke-linecap="round"/>
<path d="M63.6208 41.5731C63.5993 39.6904 65.6387 39.3311 67.124 39.229C68.6093 39.1268 80.7719 37.7231 84.4633 38.5305C88.1547 39.3379 86.8508 42.4767 86.3326 44.2948C85.8144 46.1128 85.5424 46.5453 81.8725 47.6207C78.2025 48.696 70.8815 49.8523 67.2312 48.6428C63.5808 47.4333 63.6422 43.4559 63.6208 41.5731Z" stroke="#0A1D3E" stroke-width="0.5" stroke-linecap="round"/>
</g>
</svg>
